simulation
nRows=24
nColumns=15
endheader
time  TH_x TH_y TH_z SC_y  SC_z  SC_x  AC_y  AC_z  AC_x  GH_y  GH_z  GH_yy  EL_x  PS_y
0.500000  0.000000  0.000000  0.000000  -35.268917  18.529673  17.792156  44.228349  8.653748  6.138596  54.762340  39.563534  -44.664244  16.368198  105.660260
0.500674  0.000000  0.000000  0.000000  -35.268917  18.529673  21.720728  44.586960  5.904132  3.309573  54.762340  39.563534  -44.664244  16.368198  105.660260
0.501348  0.000000  0.000000  0.000000  -35.268917  18.529673  25.649299  44.807916  3.140367  0.508571  54.762340  39.563534  -44.664244  16.368198  105.660260
0.502022  0.000000  0.000000  0.000000  -35.268917  18.529673  29.577871  44.893275  0.369155  -2.277619  54.762340  39.563534  -44.664244  16.368198  105.660260
0.502695  0.000000  0.000000  0.000000  -35.268917  18.529673  33.506442  44.843837  -2.402930  -5.062070  54.762340  39.563534  -44.664244  16.368198  105.660260
0.503369  0.000000  0.000000  0.000000  -35.268917  18.529673  37.435013  44.659134  -5.169324  -7.857844  54.762340  39.563534  -44.664244  16.368198  105.660260
0.504043  0.000000  0.000000  0.000000  -35.268917  18.529673  41.363585  44.337445  -7.923368  -10.678102  54.762340  39.563534  -44.664244  16.368198  105.660260
0.504717  0.000000  0.000000  0.000000  -35.268917  18.529673  45.292156  43.875795  -10.658214  -13.536229  54.762340  39.563534  -44.664244  16.368198  105.660260
0.505391  0.000000  0.000000  0.000000  -34.740801  1.464406  -8.874234  48.692239  55.186811  41.661164  54.522847  51.350902  -37.394440  29.558764  115.775397
0.506065  0.000000  0.000000  0.000000  -34.740801  1.464406  -4.945662  52.099933  52.158135  37.433535  54.522847  51.350902  -37.394440  29.558764  115.775397
0.506739  0.000000  0.000000  0.000000  -34.740801  1.464406  -1.017091  54.942561  48.997862  33.755617  54.522847  51.350902  -37.394440  29.558764  115.775397
0.507412  0.000000  0.000000  0.000000  -34.740801  1.464406  2.911481  57.321716  45.734770  30.523451  54.522847  51.350902  -37.394440  29.558764  115.775397
0.508086  0.000000  0.000000  0.000000  -34.740801  1.464406  6.840052  59.319337  42.390688  27.652552  54.522847  51.350902  -37.394440  29.558764  115.775397
0.508760  0.000000  0.000000  0.000000  -34.740801  1.464406  10.768624  61.000628  38.982278  25.074956  54.522847  51.350902  -37.394440  29.558764  115.775397
0.509434  0.000000  0.000000  0.000000  -34.740801  1.464406  14.697195  62.417200  35.522401  22.736051  54.522847  51.350902  -37.394440  29.558764  115.775397
0.510108  0.000000  0.000000  0.000000  -34.740801  1.464406  18.625766  63.609850  32.021123  20.591756  54.522847  51.350902  -37.394440  29.558764  115.775397
0.510782  0.000000  0.000000  0.000000  -34.740801  1.464406  22.554338  64.610766  28.486442  18.606206  54.522847  51.350902  -37.394440  29.558764  115.775397
0.511456  0.000000  0.000000  0.000000  -34.740801  1.464406  26.482909  65.445460  24.924790  16.749903  54.522847  51.350902  -37.394440  29.558764  115.775397
0.512129  0.000000  0.000000  0.000000  -34.740801  1.464406  30.411481  66.134006  21.341450  14.998263  54.522847  51.350902  -37.394440  29.558764  115.775397
0.512803  0.000000  0.000000  0.000000  -34.740801  1.464406  34.340052  66.692164  17.740831  13.330482  54.522847  51.350902  -37.394440  29.558764  115.775397
0.513477  0.000000  0.000000  0.000000  -34.740801  1.464406  38.268624  67.132156  14.126682  11.728639  54.522847  51.350902  -37.394440  29.558764  115.775397
0.514151  0.000000  0.000000  0.000000  -34.740801  1.464406  42.197195  67.463279  10.502243  10.176972  54.522847  51.350902  -37.394440  29.558764  115.775397
0.514825  0.000000  0.000000  0.000000  -34.740801  1.464406  46.125766  67.692311  6.870470  8.661366  54.522847  51.350902  -37.394440  29.558764  115.775397
0.515499  0.000000  0.000000  0.000000  -34.104508  7.393457  -8.874234  40.406328  48.436670  41.056666  49.272313  36.524048  -40.512314  25.135226  107.573093
